<mxfile host="app.diagrams.net" modified="2023-03-24T20:12:19.337Z" agent="Mozilla/5.0 (X11; Linux x86_64) AppleWebKit/537.36 (KHTML, like Gecko) Chrome/111.0.0.0 Safari/537.36" etag="uGZmD5UHrOsTe9uLRT3H" version="21.1.1" type="github">
  <diagram name="PÃ¡gina-1" id="2Zg3THax8KRtt_-ZU9Ef">
    <mxGraphModel dx="1391" dy="778" grid="1" gridSize="10" guides="1" tooltips="1" connect="1" arrows="1" fold="1" page="1" pageScale="1" pageWidth="827" pageHeight="1169" math="0" shadow="0">
      <root>
        <mxCell id="0" />
        <mxCell id="1" parent="0" />
        <mxCell id="lC-HwIaUkqtJUyG15E-E-1" value="Fornecedor" style="shape=umlActor;verticalLabelPosition=bottom;verticalAlign=top;html=1;outlineConnect=0;" vertex="1" parent="1">
          <mxGeometry x="680" y="410" width="30" height="60" as="geometry" />
        </mxCell>
        <mxCell id="lC-HwIaUkqtJUyG15E-E-2" value="Hospital" style="shape=umlActor;verticalLabelPosition=bottom;verticalAlign=top;html=1;outlineConnect=0;" vertex="1" parent="1">
          <mxGeometry x="70" y="360" width="30" height="60" as="geometry" />
        </mxCell>
        <mxCell id="lC-HwIaUkqtJUyG15E-E-6" value="Cadastrar Produtos" style="ellipse;whiteSpace=wrap;html=1;" vertex="1" parent="1">
          <mxGeometry x="290" y="220" width="140" height="70" as="geometry" />
        </mxCell>
      </root>
    </mxGraphModel>
  </diagram>
</mxfile>
